<svg width="176" height="36" viewBox="0 0 176 36" fill="none" xmlns="http://www.w3.org/2000/svg">
<path fill-rule="evenodd" clip-rule="evenodd" d="M173.729 14H175V0.0783997H171.356V6.8768L164.299 0H163V14H166.689V7.1456L173.729 14Z" fill="white"/>
<path fill-rule="evenodd" clip-rule="evenodd" d="M151.542 14H155V13.4449L148.753 0H147.23L141 13.4449V14H144.458L145.272 12.268H150.727L151.542 14ZM149.584 9.25377H146.422L147.983 5.63442L149.584 9.25377Z" fill="white"/>
<path fill-rule="evenodd" clip-rule="evenodd" d="M125.957 6.05375L120.351 0H119V14H122.741V7.76655L125.772 10.872H126.205L129.253 7.76655V14H133V0H131.689L125.957 6.05375Z" fill="white"/>
<path fill-rule="evenodd" clip-rule="evenodd" d="M109.983 0H106.225V5.06838H101.769V0H98V14H101.769V8.36846H106.225V14H110L109.983 0Z" fill="white"/>
<path fill-rule="evenodd" clip-rule="evenodd" d="M83.317 3.19871V14H86.7047V3.19871H90V0H80V3.19871H83.317Z" fill="white"/>
<path fill-rule="evenodd" clip-rule="evenodd" d="M67.7334 0H64V14H73V10.7619H67.7334V0Z" fill="white"/>
<path fill-rule="evenodd" clip-rule="evenodd" d="M53.2948 14H57V13.4449L50.3068 0H48.6753L42 13.4449V14H45.7052L46.5777 12.268H52.4343L53.2948 14ZM51.1972 9.25377H47.8028L49.4821 5.63442L51.1972 9.25377Z" fill="white"/>
<path fill-rule="evenodd" clip-rule="evenodd" d="M8.73241 0.239364L6.31582 7.58171H6.25161L5.60952 5.2326L3.72412 0.0222658H0V0.578926L5.09002 14H7.13886L9.47373 7.32008H9.53794L11.8728 14H14.0034L19 0.55666V0H15.3167L13.4722 5.2326L12.8301 7.58171H12.7717L10.3084 0.239364H8.73241Z" fill="white"/>
<path d="M32 0H25V3H32V0Z" fill="white"/>
<path d="M36 11H25V14H36V11Z" fill="white"/>
<path d="M39 6H25V9H39V6Z" fill="white"/>
<path d="M113.008 32H111.688V28.616C111.696 28.168 111.604 27.812 111.412 27.548C111.22 27.276 110.94 27.144 110.572 27.152C110.164 27.16 109.836 27.3 109.588 27.572C109.348 27.836 109.224 28.196 109.216 28.652V32H107.932V28.652C107.932 28.188 107.832 27.824 107.632 27.56C107.432 27.288 107.136 27.156 106.744 27.164C106.328 27.172 105.988 27.312 105.724 27.584C105.468 27.856 105.34 28.216 105.34 28.664V32H104.032V27.86C104.032 27.5 103.996 27.264 103.924 27.152C103.86 27.04 103.692 26.992 103.42 27.008L103.408 26.204C103.632 26.148 103.84 26.116 104.032 26.108C104.224 26.092 104.416 26.108 104.608 26.156C104.8 26.196 104.952 26.304 105.064 26.48C105.176 26.648 105.228 26.876 105.22 27.164C105.372 26.828 105.632 26.568 106 26.384C106.376 26.192 106.772 26.096 107.188 26.096C108.124 26.096 108.708 26.46 108.94 27.188C109.092 26.828 109.36 26.556 109.744 26.372C110.136 26.188 110.572 26.096 111.052 26.096C112.396 26.096 113.048 26.936 113.008 28.616V32ZM118.401 31.028C118.217 31.388 117.929 31.66 117.537 31.844C117.145 32.02 116.725 32.108 116.277 32.108C115.717 32.108 115.229 31.944 114.813 31.616C114.405 31.288 114.201 30.852 114.201 30.308C114.185 29.644 114.385 29.14 114.801 28.796C115.225 28.444 115.773 28.268 116.445 28.268C117.077 28.268 117.649 28.412 118.161 28.7V28.124C118.161 27.772 118.021 27.508 117.741 27.332C117.469 27.156 117.141 27.072 116.757 27.08C116.381 27.088 116.017 27.128 115.665 27.2C115.313 27.272 115.037 27.36 114.837 27.464L114.645 26.528C115.237 26.224 115.949 26.072 116.781 26.072C117.565 26.072 118.201 26.236 118.689 26.564C119.185 26.884 119.433 27.416 119.433 28.16V30.44C119.433 30.624 119.433 30.752 119.433 30.824C119.441 30.888 119.461 30.972 119.493 31.076C119.533 31.172 119.593 31.232 119.673 31.256C119.761 31.28 119.881 31.284 120.033 31.268L120.057 32.012C119.745 32.06 119.469 32.084 119.229 32.084C118.989 32.084 118.793 32 118.641 31.832C118.489 31.656 118.409 31.388 118.401 31.028ZM118.161 30.02V29.54C117.689 29.26 117.189 29.128 116.661 29.144C116.325 29.152 116.045 29.252 115.821 29.444C115.597 29.636 115.485 29.9 115.485 30.236C115.485 30.508 115.589 30.716 115.797 30.86C116.005 31.004 116.253 31.076 116.541 31.076C116.925 31.076 117.273 30.988 117.585 30.812C117.905 30.628 118.097 30.364 118.161 30.02ZM122.647 27.056C122.759 26.736 122.975 26.484 123.295 26.3C123.623 26.116 123.975 26.024 124.351 26.024C124.855 26.008 125.299 26.144 125.683 26.432L125.359 27.56C125.007 27.328 124.623 27.212 124.207 27.212C123.791 27.212 123.439 27.34 123.151 27.596C122.871 27.852 122.731 28.204 122.731 28.652V32H121.435V27.8C121.435 27.64 121.431 27.524 121.423 27.452C121.415 27.38 121.391 27.308 121.351 27.236C121.319 27.156 121.259 27.104 121.171 27.08C121.083 27.056 120.963 27.048 120.811 27.056L120.799 26.168C121.279 26.056 121.699 26.068 122.059 26.204C122.427 26.34 122.623 26.624 122.647 27.056ZM127.953 28.472H128.553C129.865 28.472 130.521 27.716 130.521 26.204H131.757C131.797 27.612 131.293 28.556 130.245 29.036L132.045 31.868V32H130.737L129.141 29.456C128.989 29.496 128.785 29.516 128.529 29.516H127.953V32H126.657V23.228H127.953V28.472ZM135.73 26.084C136.73 26.084 137.454 26.384 137.902 26.984C138.35 27.584 138.478 28.372 138.286 29.348H134.014C134.014 29.86 134.19 30.268 134.542 30.572C134.902 30.876 135.354 31.028 135.898 31.028C136.666 31.068 137.366 30.948 137.998 30.668L138.166 31.64C137.43 31.968 136.702 32.132 135.982 32.132C135.014 32.148 134.222 31.868 133.606 31.292C132.99 30.716 132.698 29.948 132.73 28.988C132.746 28.068 133.042 27.356 133.618 26.852C134.194 26.34 134.898 26.084 135.73 26.084ZM135.718 27.092C134.774 27.092 134.214 27.536 134.038 28.424H137.23C137.246 28.008 137.106 27.684 136.81 27.452C136.522 27.212 136.158 27.092 135.718 27.092ZM141.56 24.44V26.228H143.564V27.164H141.56V29.768C141.56 31.032 142.264 31.416 143.672 30.92L143.804 31.904C143.3 32.064 142.836 32.144 142.412 32.144C141.996 32.152 141.624 32.08 141.296 31.928C140.976 31.776 140.724 31.52 140.54 31.16C140.364 30.8 140.276 30.344 140.276 29.792V27.164L139.1 27.08V26.228H140.276L140.408 24.44H141.56ZM146.139 27.152C146.443 26.424 147.103 26.06 148.119 26.06C148.935 26.06 149.575 26.352 150.039 26.936C150.503 27.52 150.735 28.232 150.735 29.072C150.735 29.984 150.451 30.72 149.883 31.28C149.315 31.84 148.635 32.1 147.843 32.06C147.331 32.036 146.843 31.884 146.379 31.604V34.976H145.071V28.064C145.071 27.632 145.047 27.372 144.999 27.284C144.927 27.14 144.747 27.068 144.459 27.068L144.447 26.168C145.575 25.944 146.139 26.272 146.139 27.152ZM146.355 28.832V30.452C146.835 30.788 147.327 30.944 147.831 30.92C148.287 30.904 148.663 30.736 148.959 30.416C149.263 30.088 149.415 29.64 149.415 29.072C149.415 28.56 149.279 28.124 149.007 27.764C148.735 27.404 148.351 27.224 147.855 27.224C147.415 27.224 147.055 27.38 146.775 27.692C146.495 28.004 146.355 28.384 146.355 28.832ZM152.015 23.216H153.311V29.924C153.311 30.412 153.395 30.74 153.563 30.908C153.739 31.068 154.071 31.108 154.559 31.028L154.607 32.036C153.687 32.188 153.023 32.112 152.615 31.808C152.215 31.496 152.015 30.872 152.015 29.936V23.216ZM159.288 31.028C159.104 31.388 158.816 31.66 158.424 31.844C158.032 32.02 157.612 32.108 157.164 32.108C156.604 32.108 156.116 31.944 155.7 31.616C155.292 31.288 155.088 30.852 155.088 30.308C155.072 29.644 155.272 29.14 155.688 28.796C156.112 28.444 156.66 28.268 157.332 28.268C157.964 28.268 158.536 28.412 159.048 28.7V28.124C159.048 27.772 158.908 27.508 158.628 27.332C158.356 27.156 158.028 27.072 157.644 27.08C157.268 27.088 156.904 27.128 156.552 27.2C156.2 27.272 155.924 27.36 155.724 27.464L155.532 26.528C156.124 26.224 156.836 26.072 157.668 26.072C158.452 26.072 159.088 26.236 159.576 26.564C160.072 26.884 160.32 27.416 160.32 28.16V30.44C160.32 30.624 160.32 30.752 160.32 30.824C160.328 30.888 160.348 30.972 160.38 31.076C160.42 31.172 160.48 31.232 160.56 31.256C160.648 31.28 160.768 31.284 160.92 31.268L160.944 32.012C160.632 32.06 160.356 32.084 160.116 32.084C159.876 32.084 159.68 32 159.528 31.832C159.376 31.656 159.296 31.388 159.288 31.028ZM159.048 30.02V29.54C158.576 29.26 158.076 29.128 157.548 29.144C157.212 29.152 156.932 29.252 156.708 29.444C156.484 29.636 156.372 29.9 156.372 30.236C156.372 30.508 156.476 30.716 156.684 30.86C156.892 31.004 157.14 31.076 157.428 31.076C157.812 31.076 158.16 30.988 158.472 30.812C158.792 30.628 158.984 30.364 159.048 30.02ZM167.602 28.136H166.39C166.27 27.832 166.07 27.604 165.79 27.452C165.518 27.292 165.206 27.212 164.854 27.212C164.374 27.212 163.954 27.38 163.594 27.716C163.234 28.052 163.054 28.508 163.054 29.084C163.054 29.676 163.23 30.14 163.582 30.476C163.942 30.804 164.358 30.968 164.83 30.968C165.174 30.968 165.486 30.88 165.766 30.704C166.054 30.52 166.262 30.256 166.39 29.912H167.638C167.494 30.608 167.154 31.148 166.618 31.532C166.09 31.908 165.486 32.096 164.806 32.096C163.982 32.096 163.266 31.832 162.658 31.304C162.058 30.768 161.758 30.028 161.758 29.084C161.758 28.452 161.91 27.9 162.214 27.428C162.518 26.956 162.894 26.612 163.342 26.396C163.79 26.172 164.274 26.056 164.794 26.048C165.466 26.04 166.062 26.22 166.582 26.588C167.11 26.948 167.45 27.464 167.602 28.136ZM171.543 26.084C172.543 26.084 173.267 26.384 173.715 26.984C174.163 27.584 174.291 28.372 174.099 29.348H169.827C169.827 29.86 170.003 30.268 170.355 30.572C170.715 30.876 171.167 31.028 171.711 31.028C172.479 31.068 173.179 30.948 173.811 30.668L173.979 31.64C173.243 31.968 172.515 32.132 171.795 32.132C170.827 32.148 170.035 31.868 169.419 31.292C168.803 30.716 168.511 29.948 168.543 28.988C168.559 28.068 168.855 27.356 169.431 26.852C170.007 26.34 170.711 26.084 171.543 26.084ZM171.531 27.092C170.587 27.092 170.027 27.536 169.851 28.424H173.043C173.059 28.008 172.919 27.684 172.623 27.452C172.335 27.212 171.971 27.092 171.531 27.092Z" fill="#5590BE"/>
</svg>
