<svg width="70" height="70" viewBox="0 0 70 70" fill="none" xmlns="http://www.w3.org/2000/svg">
<g clip-path="url(#clip0)">
<path d="M69.234 58.5134L62.484 46.5228C62.2058 46.0283 61.5795 45.853 61.085 46.1317C60.5905 46.4099 60.4154 47.0362 60.6939 47.5307L67.4498 59.5321C67.4539 59.5396 67.4583 59.5469 67.4625 59.5543C68.0888 60.6047 68.1021 61.8669 67.4979 62.9301C66.8939 63.9935 65.803 64.6283 64.5799 64.6283H5.42006C4.19697 64.6283 3.1061 63.9934 2.50208 62.9301C1.89805 61.8667 1.91131 60.6045 2.53749 59.5543C2.54172 59.5469 2.5461 59.5396 2.5502 59.5321L32.1236 6.99845C32.7359 5.97935 33.8102 5.37136 34.9999 5.37136C36.1897 5.37136 37.264 5.97921 37.8762 6.99845L58.2258 43.1471C58.5042 43.6416 59.1307 43.817 59.6249 43.5382C60.1194 43.26 60.2945 42.6337 60.016 42.1392L39.6601 5.9788C39.656 5.97128 39.6516 5.96404 39.6474 5.95666C38.6618 4.30359 36.9245 3.31689 34.9999 3.31689C33.0755 3.31689 31.3382 4.30359 30.3525 5.95666C30.3482 5.96404 30.3438 5.97128 30.3397 5.9788L0.766024 58.5134C-0.23708 60.2049 -0.256221 62.2344 0.715711 63.945C1.68956 65.6594 3.44817 66.6829 5.42006 66.6829H64.5798C66.5517 66.6829 68.3102 65.6593 69.2841 63.945C70.2562 62.2344 70.2371 60.2049 69.234 58.5134Z" fill="white"/>
<path d="M34.9999 38.3293C28.3912 38.3293 23.0146 43.7059 23.0146 50.3146C23.0146 56.9233 28.3912 62.2999 34.9999 62.2999C41.6086 62.2999 46.9852 56.9233 46.9852 50.3146C46.9852 43.7059 41.6088 38.3293 34.9999 38.3293ZM34.9999 60.2453C29.5241 60.2453 25.0693 55.7905 25.0693 50.3146C25.0693 44.8388 29.5242 40.384 34.9999 40.384C40.4758 40.384 44.9306 44.8388 44.9306 50.3146C44.9306 55.7905 40.4758 60.2453 34.9999 60.2453Z" fill="white"/>
<path d="M37.8486 49.2052C38.4162 49.2052 38.8759 48.7455 38.8759 48.1779V47.4656C38.8759 45.8273 37.6243 44.4759 36.0269 44.3173V43.1921C36.0269 42.6246 35.5671 42.1648 34.9996 42.1648C34.432 42.1648 33.9723 42.6246 33.9723 43.1921V44.3665C32.3513 44.6808 31.1232 46.1104 31.1232 47.8218C31.1232 49.7629 32.7024 51.342 34.6434 51.342H35.3556C36.1637 51.342 36.8212 51.9995 36.8212 52.8076C36.8212 53.6158 36.1637 54.2733 35.3556 54.2733H34.2871C33.6754 54.2733 33.1777 53.7755 33.1777 53.1637C33.1777 52.5961 32.7179 52.1364 32.1503 52.1364C31.5828 52.1364 31.123 52.5961 31.123 53.1637C31.123 54.802 32.3747 56.1534 33.9721 56.312V57.4372C33.9721 58.0047 34.4319 58.4645 34.9994 58.4645C35.5669 58.4645 36.0267 58.0047 36.0267 57.4372V56.2628C37.6477 55.9485 38.8758 54.5189 38.8758 52.8075C38.8758 50.8664 37.2966 49.2873 35.3556 49.2873H34.6434C33.8353 49.2873 33.1778 48.6298 33.1778 47.8217C33.1778 47.0135 33.8353 46.356 34.6434 46.356H35.7119C36.3235 46.356 36.8213 46.8538 36.8213 47.4656V48.1779C36.8213 48.7453 37.2813 49.2052 37.8486 49.2052Z" fill="white"/>
<path d="M39.3835 14.2219H30.6171C30.0496 14.2219 29.5898 14.6817 29.5898 15.2492V34.9736C29.5898 35.5411 30.0496 36.0009 30.6171 36.0009H39.3835C39.9511 36.0009 40.4108 35.5411 40.4108 34.9736V15.2492C40.4108 14.6817 39.9511 14.2219 39.3835 14.2219ZM38.3562 33.9463H31.6444V16.2765H38.3562V33.9463Z" fill="white"/>
</g>
<defs>
<clipPath id="clip0">
<rect width="70" height="70" fill="white"/>
</clipPath>
</defs>
</svg>
