<svg width="20" height="20" viewBox="0 0 20 20" fill="none" xmlns="http://www.w3.org/2000/svg">
<path d="M19.0009 17.2605L17.2671 18.9999L12.8008 14.5336L14.5682 12.8223L19.0009 17.2605Z" stroke="white" stroke-width="0.75" stroke-linecap="round" stroke-linejoin="round"/>
<path d="M8.40088 1C9.86463 1 11.2955 1.43406 12.5126 2.24727C13.7297 3.06049 14.6782 4.21635 15.2384 5.56869C15.7986 6.92102 15.9451 8.40909 15.6596 9.84472C15.374 11.2803 14.6691 12.5991 13.6341 13.6341C12.5991 14.6691 11.2803 15.374 9.84472 15.6596C8.40909 15.9451 6.92102 15.7986 5.56869 15.2384C4.21635 14.6782 3.06049 13.7297 2.24727 12.5126C1.43406 11.2955 1 9.86463 1 8.40088C0.999264 7.42877 1.19019 6.46606 1.56186 5.56781C1.93353 4.66956 2.47864 3.85341 3.16602 3.16602C3.85341 2.47864 4.66956 1.93353 5.56781 1.56186C6.46606 1.19019 7.42877 0.999264 8.40088 1V1Z" stroke="white" stroke-width="0.75" stroke-linecap="round" stroke-linejoin="round"/>
<path d="M8.32227 2.45337C9.91359 2.45337 11.4398 3.08513 12.5656 4.20984C13.6913 5.33455 14.3245 6.86018 14.326 8.4515" stroke="white" stroke-width="0.75" stroke-linecap="round" stroke-linejoin="round"/>
</svg>
